<svg xmlns="http://www.w3.org/2000/svg" version="1.1" xmlns:xlink="http://www.w3.org/1999/xlink" xmlns:svgjs="http://svgjs.dev/svgjs" width="2000" height="2000" viewBox="0 0 2000 2000"><g transform="matrix(1,0,0,1,0,-0.0008650088572039749)"><svg viewBox="0 0 280 280" data-background-color="#e6e9e0" preserveAspectRatio="xMidYMid meet" height="2000" width="2000" xmlns="http://www.w3.org/2000/svg" xmlns:xlink="http://www.w3.org/1999/xlink"><g id="tight-bounds" transform="matrix(1,0,0,1,0,0.00012110124001196709)"><svg viewBox="0 0 280 280" height="280" width="280"><g><svg viewBox="0 0 280 280" height="280" width="280"><g><svg viewBox="0 0 280 280" height="280" width="280"><g id="textblocktransform"><svg viewBox="0 0 280 280" height="280" width="280" id="textblock"><g><svg viewBox="0 0 280 280" height="280" width="280"><g transform="matrix(1,0,0,1,57.50420886156945,57.50420886156945)"><svg viewBox="0 0 164.9915822768611 164.9915822768611" height="164.9915822768611" width="164.9915822768611"><g id="icon-0"><circle r="82" cx="82.49579113843055" cy="82.49579113843055" fill="#776e9a" data-fill-palette-color="accent"></circle><svg xmlns="http://www.w3.org/2000/svg" xmlns:xlink="http://www.w3.org/1999/xlink" version="1.1" x="24.748737341529164" y="24.74873734152917" viewBox="23.276999999999997 24.522 53.723 51.190000000000005" enable-background="new 0 0 100 100" xml:space="preserve" height="115.49410759380275" width="115.49410759380275" class="icon-xg-0" data-fill-palette-color="quaternary" id="xg-0"><path d="M44.708 75.712c11.834 0 21.426-9.522 21.426-21.272 0-11.752-9.592-21.275-21.426-21.275-11.838 0-21.431 9.523-21.431 21.275C23.277 66.19 32.87 75.712 44.708 75.712zM51.825 45.52c2.378 0 4.304 1.912 4.304 4.275 0 2.358-1.926 4.274-4.304 4.274-2.375 0-4.303-1.917-4.303-4.274C47.522 47.432 49.45 45.52 51.825 45.52zM37.387 45.52c2.375 0 4.303 1.912 4.303 4.275 0 2.358-1.928 4.274-4.303 4.274-2.379 0-4.305-1.917-4.305-4.274C33.082 47.432 35.008 45.52 37.387 45.52zM57.28 61c0 4-5.573 5.781-12.443 5.781S32.397 65 32.397 61H57.28z" fill="#e6e9e0" data-fill-palette-color="quaternary"></path><g fill="#e6e9e0" data-fill-palette-color="quaternary"><path d="M72.094 24.572c-0.338-0.032-0.729-0.05-1.027-0.05-2.398 0-3.582 1.037-4.898 2.605-1.316-1.569-2.483-2.605-4.881-2.605-0.299 0-0.628 0.018-0.969 0.05-0.944 0.093-1.729 0.539-2.577 1.336C56.722 26.865 56 28.327 56 30.315v1.21c0 0.385-0.141 0.777-0.049 1.183 5.174 2.031 9.133 6.245 10.98 11.506 2.123-1.532 3.908-2.972 5.27-4.33C75.441 36.662 77 33.903 77 31.526v-1.21C76 26.673 74.169 24.774 72.094 24.572z" fill="#e6e9e0" data-fill-palette-color="quaternary"></path></g></svg></g></svg></g><g id="text-0"><path d="M9.809 90.394c1.2-3.359 2.941-5.703 5.223-7.03 2.276-1.33 4.819-1.493 7.629-0.49v0c2.804 1.001 4.662 2.736 5.574 5.205 0.912 2.469 0.769 5.383-0.43 8.742v0l-2.52 7.056 8.297 2.963-0.995 2.785-26.293-9.39zM25.334 96.024c0.931-2.608 1.071-4.804 0.42-6.589-0.645-1.782-2.006-3.045-4.084-3.786v0c-2.128-0.76-4.009-0.656-5.643 0.313-1.628 0.971-2.908 2.76-3.839 5.367v0l-2.493 6.981 13.146 4.695z" fill="#776e9a" data-fill-palette-color="primary"></path><path d="M48.187 73.045c0.741-1.069 1.235-2.191 1.485-3.363 0.24-1.171 0.21-2.334-0.092-3.489v0l2.418-0.259c0.384 1.4 0.426 2.835 0.125 4.307-0.307 1.468-0.937 2.89-1.891 4.269v0c-1.225 1.769-2.693 3.082-4.403 3.937-1.709 0.855-3.496 1.204-5.361 1.046-1.865-0.158-3.637-0.818-5.318-1.983v0c-1.681-1.164-2.935-2.575-3.762-4.231-0.826-1.657-1.165-3.388-1.016-5.193 0.149-1.805 0.792-3.529 1.93-5.172v0c1.057-1.527 2.364-2.665 3.919-3.415 1.555-0.75 3.209-1.06 4.963-0.931 1.753 0.13 3.442 0.724 5.065 1.783v0l-7.046 16.076c1.696 0.53 3.341 0.499 4.934-0.094 1.593-0.593 2.943-1.689 4.05-3.288zM34.303 64.3c-0.836 1.207-1.304 2.478-1.403 3.811-0.104 1.339 0.158 2.622 0.785 3.847 0.622 1.222 1.578 2.279 2.868 3.172v0c0.331 0.229 0.578 0.384 0.742 0.465v0l6.066-13.794c-1.624-0.741-3.271-0.899-4.943-0.475-1.67 0.434-3.042 1.425-4.115 2.974z" fill="#776e9a" data-fill-palette-color="primary"></path><path d="M60.273 33.782l2.116-1.874 13.912 15.703-2.025 1.794-2.747-3.102c0.296 1.619 0.169 3.169-0.381 4.651-0.555 1.486-1.488 2.81-2.798 3.97v0c-1.475 1.307-3.111 2.151-4.905 2.532-1.795 0.381-3.569 0.264-5.322-0.35-1.754-0.614-3.317-1.697-4.692-3.247v0c-1.374-1.551-2.26-3.233-2.658-5.049-0.399-1.815-0.296-3.585 0.307-5.31 0.603-1.726 1.642-3.242 3.117-4.55v0c1.27-1.125 2.652-1.88 4.148-2.264 1.491-0.38 3.014-0.355 4.57 0.077v0zM66.856 52.889c1.094-0.969 1.861-2.101 2.3-3.395 0.434-1.289 0.491-2.63 0.171-4.022-0.32-1.383-1.009-2.671-2.067-3.865v0c-1.058-1.194-2.254-2.034-3.588-2.518-1.343-0.485-2.681-0.59-4.014-0.314-1.337 0.28-2.553 0.905-3.647 1.874v0c-1.114 0.987-1.888 2.125-2.322 3.415-0.439 1.294-0.496 2.635-0.172 4.022 0.32 1.383 1.009 2.671 2.067 3.865v0c1.058 1.194 2.254 2.034 3.588 2.518 1.338 0.489 2.676 0.594 4.014 0.314 1.332-0.276 2.556-0.907 3.67-1.894z" fill="#776e9a" data-fill-palette-color="primary"></path><path d="M93.76 38.184c-1.843 0.946-3.699 1.389-5.568 1.331-1.869-0.059-3.591-0.603-5.167-1.634-1.576-1.03-2.831-2.455-3.764-4.274v0c-0.933-1.82-1.356-3.664-1.268-5.533 0.089-1.869 0.654-3.58 1.697-5.132 1.042-1.552 2.485-2.801 4.328-3.747v0c1.611-0.826 3.209-1.251 4.796-1.273 1.586-0.022 3.055 0.381 4.407 1.209v0l-1.223 2.244c-1.086-0.603-2.222-0.895-3.41-0.873-1.178 0.024-2.325 0.322-3.44 0.895v0c-1.348 0.692-2.405 1.614-3.17 2.767-0.771 1.156-1.171 2.447-1.201 3.872-0.033 1.419 0.314 2.838 1.043 4.258v0c0.741 1.444 1.694 2.56 2.859 3.348 1.169 0.795 2.448 1.216 3.837 1.265 1.383 0.052 2.748-0.268 4.096-0.96v0c1.116-0.572 2.03-1.324 2.743-2.255 0.716-0.94 1.145-2.027 1.289-3.261v0l2.531 0.306c-0.112 1.587-0.646 3.022-1.602 4.304-0.955 1.281-2.226 2.329-3.813 3.143z" fill="#776e9a" data-fill-palette-color="primary"></path><path d="M117.464 27.34c1.261-0.318 2.371-0.837 3.331-1.557 0.951-0.724 1.693-1.62 2.226-2.689v0l1.991 1.396c-0.631 1.307-1.544 2.416-2.739 3.326-1.196 0.904-2.607 1.561-4.232 1.971v0c-2.087 0.527-4.055 0.55-5.905 0.07-1.85-0.48-3.426-1.393-4.727-2.738-1.301-1.345-2.202-3.009-2.702-4.992v0c-0.501-1.983-0.517-3.87-0.05-5.661 0.467-1.792 1.351-3.318 2.651-4.58 1.3-1.262 2.918-2.137 4.855-2.626v0c1.801-0.455 3.533-0.453 5.198 0.005 1.665 0.458 3.115 1.312 4.35 2.563 1.236 1.251 2.117 2.809 2.643 4.675v0l-15.881 7.474c0.929 1.515 2.188 2.573 3.778 3.175 1.59 0.601 3.328 0.664 5.213 0.188zM112.759 11.62c-1.424 0.359-2.612 1.009-3.564 1.947-0.959 0.941-1.605 2.079-1.939 3.415-0.335 1.329-0.311 2.755 0.074 4.276v0c0.098 0.39 0.183 0.67 0.253 0.838v0l13.642-6.4c-0.736-1.626-1.873-2.829-3.411-3.61-1.543-0.772-3.228-0.927-5.055-0.466z" fill="#776e9a" data-fill-palette-color="primary"></path><path d="M173.277 28.36l-1.875 1.647-3.307-4.472c-2.682 2.191-5.933 3.03-9.754 2.519v0c-1.788-0.24-3.35-0.75-4.686-1.531-1.329-0.787-2.317-1.765-2.966-2.935-0.647-1.176-0.879-2.448-0.696-3.817v0c0.223-1.661 0.95-3.079 2.184-4.253 1.234-1.181 3.21-2.326 5.93-3.437v0c-1.132-1.545-1.883-2.833-2.253-3.864-0.377-1.025-0.493-2.079-0.347-3.161v0c0.237-1.768 1.062-3.105 2.475-4.012 1.408-0.914 3.178-1.228 5.312-0.942v0c1.98 0.265 3.483 0.964 4.508 2.096 1.033 1.126 1.435 2.546 1.205 4.261v0c-0.183 1.369-0.81 2.54-1.881 3.512-1.071 0.973-2.827 1.965-5.27 2.978v0l6.548 8.843c1.039-1.39 1.895-3.085 2.568-5.085v0l2.198 1.015c-0.831 2.412-1.932 4.426-3.306 6.041v0zM163.013 2.195c-1.369-0.183-2.488 0.015-3.357 0.596-0.869 0.58-1.38 1.439-1.532 2.575v0c-0.11 0.817-0.001 1.623 0.325 2.418 0.32 0.794 1.013 1.905 2.08 3.333v0c2.162-0.887 3.68-1.689 4.553-2.404 0.874-0.715 1.376-1.561 1.507-2.538v0c0.141-1.05-0.103-1.935-0.73-2.654-0.628-0.713-1.577-1.155-2.846-1.326zM158.813 25.742c3.057 0.41 5.676-0.302 7.855-2.133v0l-7.194-9.691c-2.352 0.943-4.011 1.861-4.976 2.753-0.965 0.892-1.531 1.956-1.696 3.192v0c-0.201 1.502 0.249 2.79 1.349 3.865 1.107 1.075 2.661 1.747 4.662 2.014z" fill="#776e9a" data-fill-palette-color="primary"></path><path d="M194.881 38.43l13.322-24.535 2.598 1.411-12.103 22.29 13.735 7.458-1.219 2.245z" fill="#776e9a" data-fill-palette-color="primary"></path><path d="M222.874 58.261c-1.494-1.357-2.532-2.921-3.115-4.692-0.583-1.771-0.674-3.57-0.272-5.398 0.402-1.828 1.29-3.498 2.665-5.012v0c1.375-1.513 2.954-2.557 4.734-3.131 1.781-0.574 3.576-0.65 5.386-0.229 1.81 0.421 3.461 1.311 4.955 2.668v0c1.499 1.362 2.544 2.923 3.136 4.685 0.592 1.761 0.68 3.549 0.263 5.363-0.411 1.819-1.305 3.485-2.68 4.998v0c-1.375 1.513-2.949 2.562-4.72 3.144-1.766 0.588-3.558 0.676-5.377 0.264-1.819-0.411-3.477-1.298-4.975-2.66zM224.565 56.401c1.102 1.001 2.319 1.65 3.653 1.947 1.329 0.292 2.663 0.2 4.002-0.277 1.33-0.477 2.532-1.305 3.605-2.486v0c1.073-1.181 1.784-2.456 2.131-3.826 0.347-1.379 0.312-2.716-0.107-4.01-0.423-1.299-1.185-2.45-2.286-3.451v0c-1.102-1.001-2.317-1.648-3.646-1.94-1.334-0.297-2.673-0.209-4.017 0.263-1.34 0.467-2.546 1.292-3.619 2.473v0c-1.073 1.181-1.779 2.461-2.117 3.839-0.342 1.383-0.302 2.725 0.121 4.024 0.418 1.295 1.178 2.443 2.28 3.444z" fill="#776e9a" data-fill-palette-color="primary"></path><path d="M261.642 72.765l1.563 2.319-22.613 3.985-1.63-2.418 12.203-19.432 1.647 2.444-10.425 16.51z" fill="#776e9a" data-fill-palette-color="primary"></path><path d="M254.266 100.696c0.489 1.205 1.155 2.234 2 3.086 0.848 0.843 1.838 1.454 2.968 1.835v0l-1.108 2.164c-1.382-0.446-2.605-1.197-3.671-2.256-1.06-1.061-1.904-2.368-2.534-3.921v0c-0.809-1.995-1.102-3.941-0.881-5.84 0.221-1.899 0.909-3.584 2.062-5.058 1.154-1.473 2.678-2.594 4.574-3.362v0c1.895-0.768 3.762-1.044 5.6-0.828 1.839 0.217 3.472 0.882 4.901 1.996 1.428 1.114 2.518 2.597 3.269 4.449v0c0.698 1.721 0.934 3.438 0.709 5.149-0.225 1.712-0.872 3.266-1.941 4.662-1.069 1.396-2.492 2.482-4.267 3.26v0l-9.586-14.704c-1.373 1.128-2.248 2.521-2.625 4.179-0.377 1.658-0.2 3.388 0.53 5.189zM269.19 93.875c-0.552-1.361-1.358-2.448-2.419-3.262-1.063-0.821-2.28-1.304-3.648-1.451-1.363-0.149-2.771 0.071-4.226 0.66v0c-0.373 0.151-0.638 0.273-0.795 0.366v0l8.214 12.634c1.51-0.952 2.545-2.244 3.107-3.875 0.553-1.635 0.475-3.325-0.233-5.072z" fill="#776e9a" data-fill-palette-color="primary"></path><path d="M13.811 143.33c0-1.78 1.443-3.223 3.222-3.223 1.78 0 3.223 1.443 3.223 3.223 0 1.78-1.443 3.223-3.223 3.222-1.78 0-3.223-1.443-3.222-3.222z" fill="#776e9a" data-fill-palette-color="primary"></path><path d="M267.26 143.33c0-1.78 1.443-3.223 3.223-3.223 1.78 0 3.223 1.443 3.223 3.223 0 1.78-1.443 3.223-3.223 3.222-1.78 0-3.223-1.443-3.223-3.222z" fill="#776e9a" data-fill-palette-color="primary"></path></g><g id="text-1"><path d="M42.605 184.533c1.197 3.353 1.336 6.265 0.417 8.736-0.925 2.473-2.787 4.209-5.584 5.208v0c-2.804 1.001-5.337 0.834-7.601-0.501-2.27-1.333-4.003-3.675-5.2-7.028v0l-2.516-7.047-8.288 2.959-0.994-2.785 26.255-9.374zM27.053 190c0.929 2.602 2.207 4.388 3.836 5.358 1.628 0.971 3.481 1.085 5.558 0.344v0c2.122-0.758 3.508-2.029 4.16-3.813 0.645-1.782 0.503-3.974-0.426-6.576v0l-2.489-6.972-13.128 4.687z" fill="#776e9a" data-fill-palette-color="primary"></path><path d="M34.738 222.895c0.74 1.07 1.616 1.927 2.625 2.574 1.006 0.641 2.101 1.021 3.284 1.139v0l-0.6 2.348c-1.447-0.123-2.804-0.587-4.07-1.39-1.266-0.804-2.376-1.895-3.33-3.273v0c-1.225-1.77-1.935-3.602-2.13-5.498-0.204-1.897 0.097-3.688 0.905-5.372 0.804-1.69 2.046-3.117 3.728-4.281v0c1.681-1.164 3.44-1.839 5.276-2.025 1.842-0.19 3.576 0.101 5.205 0.874 1.637 0.775 3.023 1.981 4.156 3.618v0c1.057 1.527 1.663 3.15 1.817 4.87 0.16 1.716-0.131 3.369-0.873 4.959-0.738 1.596-1.889 2.967-3.451 4.114v0l-12.548-12.243c-1.093 1.401-1.643 2.952-1.649 4.652 0 1.696 0.551 3.341 1.655 4.934zM47.785 212.994c-0.832-1.202-1.854-2.084-3.067-2.647-1.217-0.568-2.507-0.776-3.869-0.624-1.363 0.152-2.689 0.675-3.979 1.568v0c-0.325 0.225-0.557 0.402-0.697 0.531v0l10.772 10.525c1.261-1.264 1.985-2.752 2.17-4.463 0.186-1.711-0.257-3.341-1.33-4.89z" fill="#776e9a" data-fill-palette-color="primary"></path><path d="M74.148 237.166l2.115 1.875-13.895 15.678-2.024-1.794 2.748-3.101c-1.571 0.489-3.125 0.549-4.663 0.181-1.537-0.368-2.961-1.132-4.27-2.293v0c-1.47-1.303-2.502-2.822-3.096-4.558-0.594-1.736-0.691-3.506-0.292-5.312 0.399-1.815 1.285-3.497 2.659-5.048v0c1.37-1.545 2.931-2.625 4.685-3.239 1.749-0.618 3.514-0.73 5.295-0.333 1.786 0.391 3.414 1.238 4.884 2.541v0c1.27 1.125 2.183 2.405 2.739 3.839 0.557 1.434 0.715 2.949 0.474 4.545v0zM56.007 245.99c1.089 0.965 2.302 1.588 3.639 1.868 1.332 0.276 2.665 0.172 4-0.312 1.334-0.484 2.53-1.323 3.588-2.518v0c1.054-1.189 1.741-2.475 2.062-3.857 0.32-1.382 0.264-2.718-0.171-4.008-0.439-1.294-1.203-2.423-2.291-3.389v0c-1.114-0.987-2.337-1.619-3.67-1.894-1.337-0.28-2.673-0.178-4.007 0.305-1.334 0.484-2.528 1.321-3.582 2.511v0c-1.058 1.194-1.748 2.483-2.068 3.865-0.32 1.382-0.261 2.721 0.178 4.014 0.434 1.289 1.208 2.428 2.322 3.415z" fill="#776e9a" data-fill-palette-color="primary"></path><path d="M83.978 267.475c-1.837-0.943-3.277-2.191-4.319-3.743-1.042-1.552-1.603-3.265-1.682-5.137-0.082-1.881 0.344-3.731 1.278-5.55v0c0.934-1.819 2.184-3.235 3.751-4.247 1.564-1.021 3.279-1.558 5.145-1.61 1.869-0.058 3.722 0.384 5.559 1.327v0c1.611 0.827 2.887 1.878 3.83 3.153 0.937 1.272 1.463 2.699 1.579 4.281v0l-2.531 0.306c-0.143-1.234-0.568-2.322-1.275-3.266-0.707-0.943-1.618-1.701-2.733-2.273v0c-1.342-0.689-2.708-1.009-4.097-0.961-1.383 0.051-2.66 0.477-3.832 1.278-1.172 0.8-2.121 1.907-2.846 3.321v0c-0.741 1.444-1.092 2.869-1.053 4.275 0.039 1.407 0.441 2.687 1.205 3.841 0.77 1.157 1.827 2.079 3.169 2.768v0c1.115 0.573 2.259 0.877 3.431 0.913 1.172 0.036 2.303-0.25 3.392-0.859v0l1.222 2.244c-1.352 0.828-2.824 1.23-4.416 1.204-1.598-0.029-3.19-0.451-4.777-1.265z" fill="#776e9a" data-fill-palette-color="primary"></path><path d="M113.438 275.157c1.261 0.319 2.485 0.389 3.67 0.212 1.179-0.179 2.254-0.613 3.224-1.302v0l1.092 2.164c-1.171 0.859-2.498 1.402-3.98 1.629-1.482 0.227-3.036 0.136-4.661-0.275v0c-2.087-0.527-3.827-1.441-5.221-2.74-1.402-1.295-2.352-2.842-2.852-4.642-0.506-1.801-0.509-3.694-0.007-5.676v0c0.501-1.983 1.382-3.648 2.642-4.997 1.262-1.355 2.76-2.276 4.495-2.764 1.743-0.493 3.58-0.496 5.51-0.009v0c1.801 0.455 3.325 1.279 4.572 2.473 1.249 1.187 2.117 2.623 2.605 4.31 0.493 1.688 0.529 3.477 0.106 5.369v0l-17.505-0.969c0.098 1.774 0.704 3.304 1.818 4.588 1.116 1.278 2.613 2.154 4.492 2.629zM116.754 259.117c-1.417-0.358-2.768-0.35-4.052 0.024-1.29 0.372-2.399 1.064-3.325 2.075-0.926 1.011-1.581 2.277-1.966 3.798v0c-0.097 0.384-0.155 0.67-0.175 0.858v0l15.036 0.843c0.118-1.782-0.315-3.378-1.3-4.789-0.985-1.411-2.391-2.347-4.218-2.809z" fill="#776e9a" data-fill-palette-color="primary"></path><path d="M175.654 276.234l-1.365 2.08-4.367-3.433c-2.005 2.812-4.914 4.474-8.728 4.984v0c-1.794 0.24-3.432 0.159-4.914-0.244-1.488-0.403-2.699-1.086-3.633-2.051-0.933-0.957-1.492-2.121-1.675-3.489v0c-0.223-1.661 0.103-3.22 0.977-4.677 0.88-1.457 2.486-3.08 4.817-4.866v0c-1.498-1.186-2.561-2.228-3.189-3.125-0.627-0.897-1.013-1.884-1.157-2.96v0c-0.236-1.761 0.205-3.268 1.322-4.52 1.118-1.246 2.744-2.011 4.878-2.297v0c1.974-0.264 3.604 0.011 4.89 0.826 1.287 0.822 2.045 2.087 2.274 3.795v0c0.183 1.369-0.113 2.664-0.891 3.884-0.771 1.213-2.202 2.629-4.291 4.248v0l8.633 6.799c0.637-1.607 1.017-3.465 1.141-5.571v0l2.377 0.402c-0.167 2.539-0.697 4.768-1.59 6.686v0zM158.9 253.729c-1.369 0.183-2.396 0.669-3.082 1.458-0.686 0.789-0.953 1.748-0.802 2.878v0c0.109 0.817 0.423 1.567 0.941 2.248 0.524 0.681 1.489 1.57 2.894 2.667v0c1.845-1.431 3.095-2.603 3.75-3.516 0.655-0.92 0.917-1.868 0.786-2.845v0c-0.141-1.05-0.608-1.836-1.402-2.359-0.794-0.523-1.822-0.7-3.085-0.531zM161.041 277.511c3.05-0.409 5.383-1.78 6.998-4.113v0l-9.48-7.447c-2.014 1.528-3.37 2.846-4.067 3.955-0.696 1.115-0.962 2.29-0.796 3.526v0c0.201 1.502 0.974 2.623 2.317 3.363 1.351 0.746 3.027 0.985 5.028 0.716z" fill="#776e9a" data-fill-palette-color="primary"></path><path d="M204.906 266.644l-13.307-24.498 2.598-1.411 12.093 22.262 13.716-7.45 1.214 2.235z" fill="#776e9a" data-fill-palette-color="primary"></path><path d="M237.263 244.196c-1.493 1.358-3.149 2.242-4.967 2.654-1.814 0.417-3.609 0.336-5.386-0.243-1.781-0.574-3.359-1.617-4.735-3.13v0c-1.376-1.513-2.262-3.181-2.659-5.004-0.407-1.823-0.312-3.613 0.284-5.369 0.592-1.761 1.634-3.321 3.128-4.678v0c1.493-1.358 3.142-2.245 4.947-2.662 1.805-0.427 3.591-0.346 5.357 0.241 1.767 0.578 3.338 1.623 4.713 3.137v0c1.376 1.513 2.269 3.179 2.681 4.997 0.417 1.814 0.331 3.604-0.256 5.37-0.578 1.767-1.613 3.329-3.107 4.687zM235.572 242.335c1.096-0.997 1.856-2.145 2.279-3.444 0.418-1.295 0.453-2.627 0.105-3.996-0.348-1.369-1.058-2.644-2.132-3.825v0c-1.069-1.176-2.268-2.002-3.598-2.479-1.33-0.476-2.659-0.568-3.988-0.275-1.334 0.297-2.549 0.944-3.646 1.941v0c-1.101 1.001-1.861 2.149-2.278 3.444-0.423 1.299-0.465 2.638-0.128 4.016 0.338 1.378 1.041 2.655 2.11 3.832v0c1.073 1.181 2.28 2.005 3.62 2.472 1.34 0.467 2.677 0.552 4.011 0.255 1.329-0.293 2.544-0.94 3.645-1.941z" fill="#776e9a" data-fill-palette-color="primary"></path><path d="M244.26 202.177l1.562-2.319 12.164 19.438-1.624 2.411-22.561-4.008 1.647-2.443 19.18 3.463z" fill="#776e9a" data-fill-palette-color="primary"></path><path d="M269.416 192.084c0.488-1.206 0.726-2.408 0.713-3.606-0.016-1.193-0.298-2.317-0.848-3.372v0l2.293-0.785c0.69 1.278 1.046 2.667 1.069 4.166 0.022 1.499-0.282 3.026-0.912 4.579v0c-0.808 1.995-1.952 3.593-3.43 4.796-1.475 1.211-3.138 1.941-4.989 2.188-1.854 0.254-3.728-0.002-5.623-0.77v0c-1.895-0.768-3.424-1.869-4.587-3.302-1.169-1.436-1.876-3.046-2.123-4.832-0.25-1.794-0.001-3.614 0.748-5.459v0c0.698-1.721 1.723-3.118 3.076-4.19 1.347-1.075 2.889-1.738 4.626-1.989 1.739-0.257 3.517-0.047 5.333 0.631v0l-3.359 17.206c1.771 0.146 3.369-0.244 4.794-1.172 1.419-0.93 2.492-2.293 3.219-4.089zM253.982 186.601c-0.549 1.355-0.726 2.694-0.531 4.017 0.192 1.329 0.725 2.522 1.599 3.578 0.874 1.056 2.038 1.879 3.493 2.468v0c0.367 0.149 0.642 0.246 0.826 0.291v0l2.896-14.779c-1.749-0.361-3.39-0.151-4.922 0.632-1.532 0.782-2.652 2.047-3.361 3.793z" fill="#776e9a" data-fill-palette-color="primary"></path></g></svg></g></svg></g></svg></g></svg></g><defs></defs></svg><rect width="280" height="280" fill="none" stroke="none" visibility="hidden"></rect></g></svg></g></svg>